<mxfile host="app.diagrams.net" modified="2020-07-01T03:25:59.304Z" agent="5.0 (Macintosh; Intel Mac OS X 10_14_6) AppleWebKit/605.1.15 (KHTML, like Gecko) Version/12.1.2 Safari/605.1.15" etag="6-xP-S6tHl3RILkuhNJZ" version="13.3.5" type="github">
  <diagram id="GlrmGB7Cg13xpDT-XPhr" name="第 1 页">
    <mxGraphModel dx="946" dy="662" grid="1" gridSize="10" guides="1" tooltips="1" connect="1" arrows="1" fold="1" page="1" pageScale="1" pageWidth="827" pageHeight="1169" math="0" shadow="0">
      <root>
        <mxCell id="0" />
        <mxCell id="1" parent="0" />
        <mxCell id="u_nAJyTLqQvdmRVoEmsV-29" style="edgeStyle=orthogonalEdgeStyle;rounded=0;orthogonalLoop=1;jettySize=auto;html=1;exitX=0.5;exitY=1;exitDx=0;exitDy=0;entryX=0.5;entryY=0;entryDx=0;entryDy=0;" edge="1" parent="1" source="u_nAJyTLqQvdmRVoEmsV-1" target="u_nAJyTLqQvdmRVoEmsV-26">
          <mxGeometry relative="1" as="geometry" />
        </mxCell>
        <mxCell id="u_nAJyTLqQvdmRVoEmsV-1" value="开始" style="ellipse;whiteSpace=wrap;html=1;" vertex="1" parent="1">
          <mxGeometry x="103" y="30" width="120" height="80" as="geometry" />
        </mxCell>
        <mxCell id="u_nAJyTLqQvdmRVoEmsV-16" style="edgeStyle=orthogonalEdgeStyle;rounded=0;orthogonalLoop=1;jettySize=auto;html=1;entryX=0;entryY=0.5;entryDx=0;entryDy=0;" edge="1" parent="1" source="u_nAJyTLqQvdmRVoEmsV-4" target="u_nAJyTLqQvdmRVoEmsV-15">
          <mxGeometry relative="1" as="geometry" />
        </mxCell>
        <mxCell id="u_nAJyTLqQvdmRVoEmsV-4" value="直接查询业务库" style="rounded=0;whiteSpace=wrap;html=1;" vertex="1" parent="1">
          <mxGeometry x="333" y="295" width="120" height="60" as="geometry" />
        </mxCell>
        <mxCell id="u_nAJyTLqQvdmRVoEmsV-7" style="edgeStyle=orthogonalEdgeStyle;rounded=0;orthogonalLoop=1;jettySize=auto;html=1;entryX=0;entryY=0.5;entryDx=0;entryDy=0;" edge="1" parent="1" source="u_nAJyTLqQvdmRVoEmsV-6" target="u_nAJyTLqQvdmRVoEmsV-4">
          <mxGeometry relative="1" as="geometry" />
        </mxCell>
        <mxCell id="u_nAJyTLqQvdmRVoEmsV-10" style="edgeStyle=orthogonalEdgeStyle;rounded=0;orthogonalLoop=1;jettySize=auto;html=1;" edge="1" parent="1" source="u_nAJyTLqQvdmRVoEmsV-6" target="u_nAJyTLqQvdmRVoEmsV-13">
          <mxGeometry relative="1" as="geometry" />
        </mxCell>
        <mxCell id="u_nAJyTLqQvdmRVoEmsV-6" value="是否可以直&lt;br&gt;联业务库" style="rhombus;whiteSpace=wrap;html=1;" vertex="1" parent="1">
          <mxGeometry x="88" y="270" width="150" height="110" as="geometry" />
        </mxCell>
        <mxCell id="u_nAJyTLqQvdmRVoEmsV-8" value="是" style="text;html=1;strokeColor=none;fillColor=none;align=center;verticalAlign=middle;whiteSpace=wrap;rounded=0;" vertex="1" parent="1">
          <mxGeometry x="253" y="295" width="40" height="20" as="geometry" />
        </mxCell>
        <mxCell id="u_nAJyTLqQvdmRVoEmsV-19" style="edgeStyle=orthogonalEdgeStyle;rounded=0;orthogonalLoop=1;jettySize=auto;html=1;entryX=0;entryY=0.5;entryDx=0;entryDy=0;" edge="1" parent="1" source="u_nAJyTLqQvdmRVoEmsV-9" target="u_nAJyTLqQvdmRVoEmsV-18">
          <mxGeometry relative="1" as="geometry" />
        </mxCell>
        <mxCell id="u_nAJyTLqQvdmRVoEmsV-9" value="使用对应数仓库表" style="rounded=0;whiteSpace=wrap;html=1;" vertex="1" parent="1">
          <mxGeometry x="323" y="455" width="145" height="80" as="geometry" />
        </mxCell>
        <mxCell id="u_nAJyTLqQvdmRVoEmsV-11" value="否" style="text;html=1;strokeColor=none;fillColor=none;align=center;verticalAlign=middle;whiteSpace=wrap;rounded=0;" vertex="1" parent="1">
          <mxGeometry x="173" y="390" width="40" height="20" as="geometry" />
        </mxCell>
        <mxCell id="u_nAJyTLqQvdmRVoEmsV-17" style="edgeStyle=orthogonalEdgeStyle;rounded=0;orthogonalLoop=1;jettySize=auto;html=1;entryX=0;entryY=0.5;entryDx=0;entryDy=0;" edge="1" parent="1" source="u_nAJyTLqQvdmRVoEmsV-13" target="u_nAJyTLqQvdmRVoEmsV-9">
          <mxGeometry relative="1" as="geometry" />
        </mxCell>
        <mxCell id="u_nAJyTLqQvdmRVoEmsV-22" style="edgeStyle=orthogonalEdgeStyle;rounded=0;orthogonalLoop=1;jettySize=auto;html=1;entryX=0.5;entryY=0;entryDx=0;entryDy=0;" edge="1" parent="1" source="u_nAJyTLqQvdmRVoEmsV-13" target="u_nAJyTLqQvdmRVoEmsV-21">
          <mxGeometry relative="1" as="geometry" />
        </mxCell>
        <mxCell id="u_nAJyTLqQvdmRVoEmsV-13" value="咨询数仓学长&lt;br&gt;数仓是否有对&lt;br&gt;应库表" style="rhombus;whiteSpace=wrap;html=1;" vertex="1" parent="1">
          <mxGeometry x="88" y="440" width="150" height="110" as="geometry" />
        </mxCell>
        <mxCell id="u_nAJyTLqQvdmRVoEmsV-15" value="结束" style="ellipse;whiteSpace=wrap;html=1;" vertex="1" parent="1">
          <mxGeometry x="493" y="285" width="120" height="80" as="geometry" />
        </mxCell>
        <mxCell id="u_nAJyTLqQvdmRVoEmsV-18" value="结束" style="ellipse;whiteSpace=wrap;html=1;" vertex="1" parent="1">
          <mxGeometry x="503" y="455" width="120" height="80" as="geometry" />
        </mxCell>
        <mxCell id="u_nAJyTLqQvdmRVoEmsV-20" value="是" style="text;html=1;strokeColor=none;fillColor=none;align=center;verticalAlign=middle;whiteSpace=wrap;rounded=0;" vertex="1" parent="1">
          <mxGeometry x="253" y="470" width="40" height="20" as="geometry" />
        </mxCell>
        <mxCell id="u_nAJyTLqQvdmRVoEmsV-35" style="edgeStyle=orthogonalEdgeStyle;rounded=0;orthogonalLoop=1;jettySize=auto;html=1;exitX=1;exitY=0.5;exitDx=0;exitDy=0;entryX=0;entryY=0.5;entryDx=0;entryDy=0;" edge="1" parent="1" source="u_nAJyTLqQvdmRVoEmsV-21" target="u_nAJyTLqQvdmRVoEmsV-33">
          <mxGeometry relative="1" as="geometry" />
        </mxCell>
        <mxCell id="u_nAJyTLqQvdmRVoEmsV-21" value="在zeppelin查&lt;br&gt;询hive是否有ods_{db}.{tb}" style="rhombus;whiteSpace=wrap;html=1;" vertex="1" parent="1">
          <mxGeometry x="88" y="584.5" width="150" height="110" as="geometry" />
        </mxCell>
        <mxCell id="u_nAJyTLqQvdmRVoEmsV-25" value="是" style="text;html=1;strokeColor=none;fillColor=none;align=center;verticalAlign=middle;whiteSpace=wrap;rounded=0;" vertex="1" parent="1">
          <mxGeometry x="253" y="610" width="40" height="20" as="geometry" />
        </mxCell>
        <mxCell id="u_nAJyTLqQvdmRVoEmsV-30" style="edgeStyle=orthogonalEdgeStyle;rounded=0;orthogonalLoop=1;jettySize=auto;html=1;exitX=0.5;exitY=1;exitDx=0;exitDy=0;entryX=0.5;entryY=0;entryDx=0;entryDy=0;" edge="1" parent="1" source="u_nAJyTLqQvdmRVoEmsV-26" target="u_nAJyTLqQvdmRVoEmsV-6">
          <mxGeometry relative="1" as="geometry" />
        </mxCell>
        <mxCell id="u_nAJyTLqQvdmRVoEmsV-26" value="&lt;span&gt;咨询技术学长获&lt;br&gt;取所需数据库名&lt;br&gt;(db)表名(tb)&lt;/span&gt;" style="shape=parallelogram;perimeter=parallelogramPerimeter;whiteSpace=wrap;html=1;" vertex="1" parent="1">
          <mxGeometry x="80" y="160" width="166" height="80" as="geometry" />
        </mxCell>
        <mxCell id="u_nAJyTLqQvdmRVoEmsV-31" value="否" style="text;html=1;strokeColor=none;fillColor=none;align=center;verticalAlign=middle;whiteSpace=wrap;rounded=0;" vertex="1" parent="1">
          <mxGeometry x="163" y="556" width="40" height="20" as="geometry" />
        </mxCell>
        <mxCell id="u_nAJyTLqQvdmRVoEmsV-39" style="edgeStyle=orthogonalEdgeStyle;rounded=0;orthogonalLoop=1;jettySize=auto;html=1;exitX=1;exitY=0.5;exitDx=0;exitDy=0;entryX=0;entryY=0.5;entryDx=0;entryDy=0;" edge="1" parent="1" source="u_nAJyTLqQvdmRVoEmsV-33" target="u_nAJyTLqQvdmRVoEmsV-36">
          <mxGeometry relative="1" as="geometry" />
        </mxCell>
        <mxCell id="u_nAJyTLqQvdmRVoEmsV-33" value="hive表是否采集&lt;br&gt;自对应业务表,是否有最新数据" style="rhombus;whiteSpace=wrap;html=1;" vertex="1" parent="1">
          <mxGeometry x="318" y="585" width="150" height="109" as="geometry" />
        </mxCell>
        <mxCell id="u_nAJyTLqQvdmRVoEmsV-38" style="edgeStyle=orthogonalEdgeStyle;rounded=0;orthogonalLoop=1;jettySize=auto;html=1;exitX=1;exitY=0.5;exitDx=0;exitDy=0;entryX=0;entryY=0.5;entryDx=0;entryDy=0;" edge="1" parent="1" source="u_nAJyTLqQvdmRVoEmsV-36" target="u_nAJyTLqQvdmRVoEmsV-37">
          <mxGeometry relative="1" as="geometry" />
        </mxCell>
        <mxCell id="u_nAJyTLqQvdmRVoEmsV-36" value="使用对应hive库表" style="rounded=0;whiteSpace=wrap;html=1;" vertex="1" parent="1">
          <mxGeometry x="520" y="599.5" width="145" height="80" as="geometry" />
        </mxCell>
        <mxCell id="u_nAJyTLqQvdmRVoEmsV-37" value="结束" style="ellipse;whiteSpace=wrap;html=1;" vertex="1" parent="1">
          <mxGeometry x="710" y="600" width="120" height="79" as="geometry" />
        </mxCell>
      </root>
    </mxGraphModel>
  </diagram>
</mxfile>
